<svg width="21" height="21" viewBox="0 0 21 21" fill="none" xmlns="http://www.w3.org/2000/svg">
<path d="M1.70367 10.4999C1.70367 11.655 1.9312 12.7989 2.37326 13.8661C2.81531 14.9333 3.46324 15.903 4.28005 16.7198C5.09686 17.5367 6.06656 18.1846 7.13378 18.6266C8.20097 19.0687 9.34484 19.2962 10.5 19.2962C11.6551 19.2962 12.799 19.0687 13.8661 18.6266C14.9334 18.1846 15.9031 17.5367 16.7199 16.7198C17.5367 15.903 18.1846 14.9333 18.6267 13.8661C19.0688 12.7989 19.2963 11.655 19.2963 10.4999C19.2963 9.34478 19.0688 8.20091 18.6267 7.13371C18.1846 6.0665 17.5367 5.0968 16.7199 4.27999C15.9031 3.46318 14.9334 2.81525 13.8661 2.37319C12.799 1.93113 11.6551 1.70361 10.5 1.70361C9.34484 1.70361 8.20097 1.93113 7.13378 2.37319C6.06656 2.81525 5.09686 3.46318 4.28005 4.27999C3.46324 5.0968 2.81531 6.0665 2.37326 7.13371C1.9312 8.20091 1.70367 9.34478 1.70367 10.4999Z" stroke="#C2B08B" stroke-width="1.5" stroke-linecap="round" stroke-linejoin="round"/>
<path d="M4.63586 4.63574L6.10191 6.10179M14.8982 14.8981L16.3642 16.3641" stroke="#C2B08B" stroke-width="1.5" stroke-linecap="round" stroke-linejoin="round"/>
<path d="M6.64111 11.702C6.6336 11.7132 6.60921 11.7395 6.56793 11.7808C6.52664 11.8221 6.49849 11.8502 6.48348 11.8652C6.47222 11.8802 6.44595 11.9084 6.40467 11.9497C6.36713 11.9872 6.33711 12.0153 6.31459 12.0341C6.29583 12.0491 6.26768 12.0716 6.23015 12.1017C6.19261 12.1317 6.15884 12.1542 6.12882 12.1692C6.10254 12.1805 6.07252 12.1955 6.03874 12.2143C6.00496 12.2293 5.97119 12.2405 5.93741 12.248C5.90363 12.2556 5.86985 12.2593 5.83607 12.2593C5.67094 12.2593 5.51331 12.1917 5.36319 12.0566C5.21306 11.9215 5.138 11.7771 5.138 11.6232C5.138 11.5856 5.15301 11.5443 5.18304 11.4993C5.21682 11.4505 5.26372 11.398 5.32378 11.3417C5.38758 11.2854 5.442 11.2366 5.48704 11.1953C5.53583 11.154 5.59587 11.1052 5.66719 11.0489C5.74224 10.9926 5.78728 10.957 5.8023 10.942C5.77227 10.9194 5.72911 10.8857 5.67282 10.8406C5.61652 10.7919 5.5696 10.7506 5.53207 10.7168C5.49454 10.683 5.45138 10.6417 5.40259 10.5929C5.3538 10.5404 5.31439 10.4916 5.28437 10.4466C5.25809 10.3978 5.2337 10.3433 5.21119 10.2833C5.18867 10.2233 5.17741 10.1613 5.17741 10.0975C5.17741 9.96994 5.23933 9.85172 5.36319 9.74286C5.48704 9.63399 5.61464 9.5796 5.746 9.5796C5.81731 9.5796 5.88674 9.59459 5.9543 9.62463C6.02185 9.65468 6.08565 9.69782 6.1457 9.75412C6.2095 9.80668 6.2658 9.86108 6.31459 9.91738C6.36713 9.96994 6.42343 10.0337 6.48348 10.1088C6.54728 10.1801 6.59983 10.2345 6.64111 10.272C6.68239 10.2345 6.7462 10.1651 6.83252 10.0637C6.91884 9.96241 6.99015 9.8836 7.04644 9.8273C7.10274 9.76728 7.17593 9.71098 7.266 9.65841C7.35607 9.60585 7.44427 9.5796 7.53059 9.5796C7.58313 9.5796 7.63756 9.59086 7.69385 9.61338C7.75015 9.63216 7.80082 9.66031 7.84585 9.69782C7.89464 9.7316 7.9378 9.77101 7.97533 9.81604C8.01661 9.85735 8.04665 9.90422 8.06537 9.95678C8.08789 10.0055 8.09915 10.0544 8.09915 10.1032C8.09915 10.167 8.08789 10.2307 8.06537 10.2946C8.04285 10.3546 7.99972 10.4221 7.93593 10.4972C7.87212 10.5685 7.82521 10.6211 7.79519 10.6549C7.76891 10.6849 7.70886 10.7412 7.61504 10.8237C7.52496 10.9026 7.47993 10.942 7.47993 10.942C7.49119 10.957 7.53434 10.9926 7.60941 11.0489C7.68446 11.1052 7.74452 11.154 7.78956 11.1953C7.83834 11.2366 7.89276 11.2854 7.95282 11.3417C8.01286 11.398 8.05791 11.4505 8.08789 11.4993C8.12167 11.5443 8.13856 11.5856 8.13856 11.6232C8.13856 11.7771 8.06354 11.9215 7.91341 12.0566C7.76328 12.1917 7.60565 12.2593 7.44052 12.2593C7.40298 12.2593 7.36358 12.2537 7.3223 12.2424C7.28476 12.2312 7.24911 12.2199 7.21533 12.2086C7.18531 12.1936 7.14965 12.1711 7.10837 12.1411C7.06708 12.111 7.03331 12.0867 7.00704 12.0679C6.98452 12.0491 6.95074 12.0191 6.9057 11.9778C6.86442 11.9365 6.83439 11.9084 6.81563 11.8934C6.80061 11.8746 6.77059 11.8408 6.72556 11.792C6.68052 11.7433 6.65237 11.7132 6.64111 11.702ZM10.7088 11.4233C10.6976 11.4402 10.661 11.4796 10.5991 11.5415C10.5371 11.6034 10.4949 11.6457 10.4724 11.6682C10.4555 11.6907 10.4161 11.7329 10.3542 11.7949C10.2979 11.8512 10.2528 11.8934 10.2191 11.9215C10.1909 11.944 10.1487 11.9778 10.0924 12.0229C10.0361 12.0679 9.98543 12.1017 9.94039 12.1242C9.90098 12.1411 9.85595 12.1636 9.80528 12.1917C9.75461 12.2143 9.70395 12.2312 9.65328 12.2424C9.60261 12.2537 9.55195 12.2593 9.50128 12.2593C9.25358 12.2593 9.01713 12.158 8.79195 11.9553C8.56676 11.7526 8.45417 11.5359 8.45417 11.3051C8.45417 11.2488 8.47669 11.1869 8.52172 11.1193C8.57239 11.0461 8.64276 10.9673 8.73284 10.8829C8.82854 10.7984 8.91017 10.7252 8.97772 10.6633C9.05091 10.6014 9.14098 10.5282 9.24795 10.4437C9.36054 10.3593 9.42809 10.3058 9.45061 10.2833C9.40558 10.2495 9.34084 10.1989 9.25639 10.1313C9.17195 10.0581 9.10158 9.99619 9.04528 9.94552C8.98898 9.89486 8.92424 9.83293 8.85106 9.75975C8.77787 9.68093 8.71876 9.60775 8.67372 9.54019C8.63432 9.467 8.59772 9.38538 8.56395 9.2953C8.53017 9.20523 8.51328 9.11234 8.51328 9.01664C8.51328 8.82523 8.60617 8.64789 8.79195 8.48463C8.97772 8.32138 9.16913 8.23975 9.36617 8.23975C9.47313 8.23975 9.57728 8.26226 9.67861 8.3073C9.77995 8.35234 9.87565 8.41708 9.96572 8.50152C10.0614 8.58034 10.1459 8.66197 10.2191 8.74641C10.2979 8.82523 10.3823 8.92093 10.4724 9.03352C10.5681 9.14049 10.6469 9.22212 10.7088 9.27841C10.7708 9.22212 10.8665 9.11797 10.9959 8.96597C11.1254 8.81397 11.2324 8.69575 11.3168 8.6113C11.4013 8.52123 11.5111 8.43678 11.6462 8.35797C11.7813 8.27915 11.9136 8.23975 12.0431 8.23975C12.1219 8.23975 12.2035 8.25663 12.2879 8.29041C12.3724 8.31856 12.4484 8.36078 12.5159 8.41708C12.5891 8.46775 12.6539 8.52686 12.7102 8.59441C12.7721 8.65634 12.8171 8.72671 12.8453 8.80552C12.8791 8.87871 12.8959 8.95189 12.8959 9.02508C12.8959 9.12078 12.8791 9.21649 12.8453 9.31219C12.8115 9.40226 12.7468 9.5036 12.6511 9.61619C12.5554 9.72315 12.485 9.80197 12.4399 9.85263C12.4005 9.89767 12.3105 9.98212 12.1697 10.106C12.0346 10.2242 11.9671 10.2833 11.9671 10.2833C11.9839 10.3058 12.0487 10.3593 12.1613 10.4437C12.2739 10.5282 12.3639 10.6014 12.4315 10.6633C12.5047 10.7252 12.5863 10.7984 12.6764 10.8829C12.7665 10.9673 12.834 11.0461 12.8791 11.1193C12.9297 11.1869 12.9551 11.2488 12.9551 11.3051C12.9551 11.5359 12.8425 11.7526 12.6173 11.9553C12.3921 12.158 12.1557 12.2593 11.9079 12.2593C11.8517 12.2593 11.7925 12.2509 11.7306 12.234C11.6743 12.2171 11.6208 12.2002 11.5702 12.1833C11.5251 12.1608 11.4717 12.127 11.4097 12.082C11.3478 12.0369 11.2971 12.0003 11.2577 11.9722C11.2239 11.944 11.1733 11.899 11.1057 11.8371C11.0438 11.7752 10.9988 11.7329 10.9706 11.7104C10.9481 11.6823 10.9031 11.6316 10.8355 11.5584C10.7679 11.4852 10.7257 11.4402 10.7088 11.4233ZM14.6853 11.702C14.6778 11.7132 14.6534 11.7395 14.6121 11.7808C14.5708 11.8221 14.5427 11.8502 14.5277 11.8652C14.5164 11.8802 14.4902 11.9084 14.4489 11.9497C14.4114 11.9872 14.3813 12.0153 14.3588 12.0341C14.34 12.0491 14.3119 12.0716 14.2744 12.1017C14.2369 12.1317 14.2031 12.1542 14.173 12.1692C14.1468 12.1805 14.1167 12.1955 14.083 12.2143C14.0492 12.2293 14.0154 12.2405 13.9816 12.248C13.9478 12.2556 13.9141 12.2593 13.8803 12.2593C13.7151 12.2593 13.5575 12.1917 13.4074 12.0566C13.2573 11.9215 13.1822 11.7771 13.1822 11.6232C13.1822 11.5856 13.1972 11.5443 13.2273 11.4993C13.261 11.4505 13.308 11.398 13.368 11.3417C13.4318 11.2854 13.4862 11.2366 13.5312 11.1953C13.58 11.154 13.6401 11.1052 13.7114 11.0489C13.7865 10.9926 13.8315 10.957 13.8465 10.942C13.8165 10.9194 13.7733 10.8857 13.717 10.8406C13.6607 10.7919 13.6138 10.7506 13.5763 10.7168C13.5388 10.683 13.4956 10.6417 13.4468 10.5929C13.398 10.5404 13.3586 10.4916 13.3286 10.4466C13.3023 10.3978 13.2779 10.3433 13.2554 10.2833C13.2329 10.2233 13.2216 10.1613 13.2216 10.0975C13.2216 9.96994 13.2835 9.85172 13.4074 9.74286C13.5312 9.63399 13.6588 9.5796 13.7902 9.5796C13.8615 9.5796 13.931 9.59459 13.9985 9.62463C14.0661 9.65468 14.1299 9.69782 14.1899 9.75412C14.2537 9.80668 14.31 9.86108 14.3588 9.91738C14.4114 9.96994 14.4677 10.0337 14.5277 10.1088C14.5915 10.1801 14.644 10.2345 14.6853 10.272C14.7266 10.2345 14.7904 10.1651 14.8767 10.0637C14.9631 9.96241 15.0344 9.8836 15.0907 9.8273C15.147 9.76728 15.2201 9.71098 15.3102 9.65841C15.4003 9.60585 15.4885 9.5796 15.5748 9.5796C15.6274 9.5796 15.6818 9.59086 15.7381 9.61338C15.7944 9.63216 15.845 9.66031 15.8901 9.69782C15.9388 9.7316 15.982 9.77101 16.0195 9.81604C16.0609 9.85735 16.0908 9.90422 16.1096 9.95678C16.1321 10.0055 16.1434 10.0544 16.1434 10.1032C16.1434 10.167 16.1321 10.2307 16.1096 10.2946C16.0871 10.3546 16.044 10.4221 15.9801 10.4972C15.9163 10.5685 15.8694 10.6211 15.8394 10.6549C15.8132 10.6849 15.7531 10.7412 15.6593 10.8237C15.5692 10.9026 15.5241 10.942 15.5241 10.942C15.5354 10.957 15.5785 10.9926 15.6536 11.0489C15.7287 11.1052 15.7887 11.154 15.8338 11.1953C15.8825 11.2366 15.937 11.2854 15.997 11.3417C16.0571 11.398 16.1021 11.4505 16.1321 11.4993C16.1659 11.5443 16.1828 11.5856 16.1828 11.6232C16.1828 11.7771 16.1077 11.9215 15.9576 12.0566C15.8075 12.1917 15.6499 12.2593 15.4847 12.2593C15.4472 12.2593 15.4078 12.2537 15.3665 12.2424C15.329 12.2312 15.2933 12.2199 15.2595 12.2086C15.2295 12.1936 15.1939 12.1711 15.1526 12.1411C15.1113 12.111 15.0775 12.0867 15.0513 12.0679C15.0287 12.0491 14.995 12.0191 14.9499 11.9778C14.9086 11.9365 14.8786 11.9084 14.8598 11.8934C14.8449 11.8746 14.8148 11.8408 14.7698 11.792C14.7247 11.7433 14.6966 11.7132 14.6853 11.702Z" fill="#C2B08B"/>
</svg>
